<svg width="16" height="16" viewBox="0 0 16 16" fill="none" xmlns="http://www.w3.org/2000/svg">
<path fill-rule="evenodd" clip-rule="evenodd" d="M3.56648 0.500395C4.42188 0.511371 5.03146 1.12379 5.80262 1.89865C5.99331 2.08962 6.19931 2.29815 6.42982 2.51766C7.54712 3.58592 7.22932 4.45736 6.97277 5.15686C6.69402 5.92001 6.45279 6.57853 7.8971 7.95849C9.3414 9.33846 10.0299 9.10797 10.8278 8.83944C11.5607 8.59506 12.4705 8.28921 13.5901 9.35748C13.8175 9.57479 14.032 9.76942 14.2311 9.95015C15.0451 10.6906 15.6884 11.2752 15.6992 12.0947C15.7075 12.7928 15.2634 13.5054 14.1667 14.5532L13.6812 14.2386L14.0925 14.6212C13.8497 14.859 13.2041 15.4927 11.9398 15.5H11.9168C10.0084 15.5 7.52032 14.0483 4.52143 11.1838C1.51029 8.30751 -0.0113587 5.92294 6.38316e-05 4.09591C0.00702062 2.88863 0.669441 2.27035 0.918327 2.0384L0.939571 2.01624L0.991078 1.9667C2.09001 0.916726 2.84509 0.48503 3.56648 0.500395ZM3.55193 1.59793H3.5458C3.20191 1.59793 2.67965 1.92719 1.95126 2.60319L1.805 2.74043L1.80666 2.74009C1.80666 2.74009 1.79416 2.75379 1.77286 2.77455L1.72166 2.8235C1.53633 2.99545 1.15266 3.35325 1.1488 4.10176C1.14271 5.14881 1.86333 7.0929 5.33319 10.4075C8.7862 13.7059 10.8179 14.4025 11.9168 14.4025H11.9329C12.7163 14.3981 13.09 14.0315 13.27 13.8552C13.3244 13.8018 13.3688 13.7615 13.4002 13.7374C14.1637 13.0035 14.5542 12.4584 14.5504 12.1079C14.5458 11.7508 14.081 11.3294 13.4385 10.7448C13.234 10.5596 13.0119 10.357 12.7776 10.1331C12.1695 9.5543 11.8701 9.65308 11.2077 9.87551C10.2925 10.1821 9.03891 10.6021 7.08535 8.73408C5.13101 6.86754 5.56905 5.66977 5.88839 4.79467C6.11967 4.16249 6.22535 3.87494 5.61807 3.29398C5.38067 3.06716 5.16701 2.85204 4.9702 2.65448C4.36215 2.04426 3.92334 1.60305 3.55193 1.59793ZM10.144 3.10338C11.7377 3.39898 12.9683 4.57407 13.2785 6.09744C13.339 6.39597 13.136 6.68352 12.8251 6.74133C12.7876 6.74791 12.7508 6.75157 12.7141 6.75157C12.4445 6.75157 12.2048 6.57011 12.1512 6.30817C11.9307 5.22527 11.0569 4.39041 9.92502 4.18042C9.61334 4.12262 9.4104 3.83506 9.4709 3.53727C9.5314 3.23947 9.83772 3.04484 10.144 3.10338ZM10.0982 0.504566C13.2211 0.836021 15.6464 3.15035 15.9964 6.13344C16.0316 6.4349 15.8049 6.70635 15.4902 6.74001C15.4688 6.74221 15.4465 6.74367 15.4251 6.74367C15.1364 6.74367 14.8883 6.5366 14.8553 6.25637C14.5651 3.78619 12.5572 1.86916 9.97105 1.59478C9.6563 1.56112 9.42886 1.2904 9.46409 0.988943C9.49855 0.68822 9.7796 0.466518 10.0982 0.504566Z" fill="#CFCFCF"/>
</svg>
