<svg width="16" height="14" viewBox="0 0 16 14" fill="none" xmlns="http://www.w3.org/2000/svg">
<path fill-rule="evenodd" clip-rule="evenodd" d="M11.6532 0C14.1313 0 16 1.95067 16 4.53744V9.46831C16 10.7922 15.5148 11.9883 14.6329 12.8369C13.8419 13.5972 12.8156 14 11.6651 14H4.33265C3.18437 14 2.15888 13.5979 1.36707 12.8369C0.485209 11.9883 0 10.7922 0 9.46831V4.53744C0 1.95067 1.86865 0 4.34679 0H11.6532ZM11.6532 1.07692H4.34679C2.47516 1.07692 1.11628 2.53221 1.11628 4.53744V9.46831C1.11628 10.5043 1.4854 11.4297 2.15516 12.0737C2.73265 12.6302 3.48651 12.9231 4.33488 12.9231H11.6532C11.6547 12.9216 11.6607 12.9231 11.6651 12.9231C12.5142 12.9231 13.2673 12.6302 13.8448 12.0737C14.5153 11.4297 14.8837 10.5043 14.8837 9.46831V4.53744C14.8837 2.53221 13.5248 1.07692 11.6532 1.07692ZM12.826 4.40016C13.0203 4.63063 12.9838 4.9695 12.7449 5.1576L9.43777 7.75083C9.01954 8.07104 8.51944 8.23114 8.02009 8.23114C7.52223 8.23114 7.02586 8.07247 6.6106 7.75514L3.27293 5.15904C3.03256 4.97237 2.99535 4.63278 3.18809 4.4016C3.38233 4.17114 3.73358 4.13452 3.97321 4.32047L7.30791 6.9137C7.72688 7.23391 8.31702 7.23391 8.73898 6.91083L12.0402 4.32191C12.2798 4.13309 12.6311 4.16898 12.826 4.40016Z" fill="#CFCFCF"/>
</svg>
