<svg width="53" height="52" viewBox="0 0 53 52" fill="none" xmlns="http://www.w3.org/2000/svg">
<path d="M26.3001 43.1562C22.8493 43.1175 19.4826 42.0763 16.6109 40.1575C13.6837 38.2016 11.4022 35.4216 10.055 32.1691C8.70771 28.9165 8.35521 25.3375 9.04203 21.8846C9.72885 18.4318 11.4241 15.2601 13.9135 12.7707C16.4029 10.2813 19.5746 8.58603 23.0275 7.89921C26.4803 7.21239 30.0593 7.56489 33.3119 8.91214C36.5644 10.2594 39.3444 12.5409 41.3003 15.4681C43.2562 18.3953 44.3002 21.8367 44.3002 25.3573C44.3002 25.7204 44.2762 26.0784 44.2499 26.443H21.3996H21.1943L21.1997 26.6483C21.333 31.6731 22.8065 36.5709 25.4677 40.8352L25.5178 40.9155L25.6117 40.9277C25.8402 40.9572 26.0699 40.9756 26.3001 40.9826V43.1562ZM41.8644 24.2715H42.0822L42.0637 24.0546C41.7929 20.8772 40.5576 17.8584 38.5232 15.4027C36.4888 12.947 33.7526 11.1717 30.681 10.3146L30.2362 10.1904L30.45 10.5998C32.627 14.7683 33.8295 19.3766 33.9669 24.0774L33.9726 24.2715H34.1668H41.8644ZM27.5312 9.8793L27.3778 9.97502L27.3901 9.7869C26.8001 9.70951 26.2026 9.70951 25.6126 9.7869L25.519 9.79918L25.469 9.8793C22.8073 14.1434 21.3334 19.0413 21.1997 24.0662L21.1942 24.2715H21.3996H31.6005H31.8059L31.8005 24.0662C31.6668 19.0413 30.1928 14.1434 27.5312 9.8793ZM22.513 10.3644L22.3204 10.172L22.2333 10.3388C19.1967 11.205 16.4925 12.9701 14.4772 15.4029C12.4428 17.8585 11.2074 20.8772 10.9365 24.0545L10.918 24.2715H11.1357H18.8333H19.0276L19.0333 24.0774C19.1693 19.4058 20.3572 14.8255 22.508 10.6771L22.7565 10.6078L22.5143 10.3657L22.513 10.3644ZM11.1357 26.443H10.918L10.9365 26.66C11.2074 29.8373 12.4428 32.856 14.4772 35.3116C16.5115 37.7673 19.2477 39.5427 22.3192 40.4L22.764 40.5241L22.5502 40.1147C20.3733 35.9462 19.1708 31.3379 19.0333 26.6371L19.0276 26.443H18.8333H11.1357Z" fill="#003760" stroke="white" stroke-width="0.4"/>
<path fill-rule="evenodd" clip-rule="evenodd" d="M38.0713 36.9287L44.4999 39.5001V36.9287L38.0713 33.7144V30.5001C38.0713 30.1591 37.9359 29.8321 37.6947 29.5909C37.4536 29.3498 37.1266 29.2144 36.7856 29.2144C36.4446 29.2144 36.1176 29.3498 35.8765 29.5909C35.6353 29.8321 35.4999 30.1591 35.4999 30.5001V33.7144L29.0713 36.9287V39.5001L35.4999 36.9287V41.4287L32.9284 43.3573V44.643L36.7856 43.3573L40.6428 44.643V43.3573L38.0713 41.4287V36.9287Z" fill="#003760"/>
</svg>
