<svg width="53" height="52" viewBox="0 0 53 52" fill="none" xmlns="http://www.w3.org/2000/svg">
<path d="M5.00555 18.1797V17.6741H4.5H1.00555V13.2546L1.94971 12.8317L25.9424 2.94289L25.9426 2.94278L26.5 2.71343L27.0573 2.94276L27.0576 2.94289L51.0512 12.8361L51.9944 13.2541V17.6741H48.5H47.9944V18.1797V39.9418V40.4474H48.5H51.9944V49.3281H1.00555V40.4474H4.5H5.00555V39.9418V18.1797ZM26.6926 6.02801L26.5 5.94862L26.3074 6.02801L7.55736 13.7555L7.75 14.7285H45.25L45.4426 13.7555L26.6926 6.02801ZM8.5 17.6741H7.99445V18.1797V39.9418V40.4474H8.5H12.5H13.0056V39.9418V18.1797V17.6741H12.5H8.5ZM16.5 17.6741H15.9944V18.1797V39.9418V40.4474H16.5H20.5H21.0056V39.9418V18.1797V17.6741H20.5H16.5ZM24.5 17.6741H23.9944V18.1797V39.9418V40.4474H24.5H28.5H29.0056V39.9418V18.1797V17.6741H28.5H24.5ZM32.5 17.6741H31.9944V18.1797V39.9418V40.4474H32.5H36.5H37.0056V39.9418V18.1797V17.6741H36.5H32.5ZM40.5 17.6741H39.9944V18.1797V39.9418V40.4474H40.5H44.5H45.0056V39.9418V18.1797V17.6741H44.5H40.5ZM4.5 43.393H3.99445V43.8986V45.8769V46.3825H4.5H48.5H49.0056V45.8769V43.8986V43.393H48.5H4.5Z" fill="#003760" stroke="white" stroke-width="1.01111"/>
</svg>
